M48
;DRILL file {KiCad 4.0.2+dfsg1-stable} date Thu 15 Mar 2018 01:12:57 PM CET
;FORMAT={-:-/ absolute / metric / decimal}
FMAT,2
METRIC,TZ
T1C0.650
T2C0.701
T3C0.800
T4C0.800
T5C0.899
T6C1.001
T7C1.016
T8C1.200
T9C1.524
%
G90
G05
M71
T1
X151.765Y-67.31
X151.765Y-69.31
X151.765Y-71.31
X151.765Y-73.31
X151.765Y-75.31
X151.765Y-77.31
X151.765Y-79.31
X151.765Y-81.31
X165.765Y-67.31
X165.765Y-69.31
X165.765Y-71.31
X165.765Y-73.31
X165.765Y-75.31
X165.765Y-77.31
X165.765Y-79.31
X165.765Y-81.31
T2
X164.468Y-128.271
X164.468Y-138.431
T3
X150.749Y-104.14
X150.749Y-106.68
X150.749Y-109.22
X150.749Y-111.76
X150.749Y-116.205
X158.369Y-104.14
X158.369Y-106.68
X158.369Y-109.22
X158.369Y-111.76
X170.815Y-116.84
X170.815Y-123.19
X172.815Y-116.84
X172.815Y-123.19
T4
X148.249Y-116.205
T5
X149.479Y-128.27
X150.749Y-125.73
X152.019Y-128.27
X153.289Y-125.73
X154.559Y-128.27
X155.829Y-125.73
X157.099Y-128.27
X158.369Y-125.73
T6
X148.209Y-122.555
X150.749Y-119.38
X151.13Y-99.695
X155.829Y-122.555
X158.369Y-119.38
X158.75Y-95.25
X158.75Y-99.695
X160.655Y-113.665
X166.37Y-95.25
X167.005Y-100.965
X167.005Y-105.41
X167.005Y-109.855
X168.275Y-113.665
X169.545Y-73.66
X169.545Y-81.28
X169.545Y-100.965
X169.545Y-105.41
X169.545Y-109.855
X172.72Y-67.945
X172.72Y-75.565
X172.72Y-94.615
X172.72Y-102.235
X172.72Y-104.775
X172.72Y-112.395
T7
X172.72Y-78.74
X172.72Y-81.28
X172.72Y-83.82
X172.72Y-86.36
X172.72Y-88.9
X172.72Y-91.44
T8
X147.86Y-85.265
X147.86Y-91.265
X151.86Y-85.265
X151.86Y-91.265
X165.005Y-85.265
X165.005Y-91.265
X169.005Y-85.265
X169.005Y-91.265
T9
X168.42Y-138.515
X173.5Y-138.515
T0
M30
