G04 #@! TF.FileFunction,Copper,L1,Top,Signal*
%FSLAX46Y46*%
G04 Gerber Fmt 4.6, Leading zero omitted, Abs format (unit mm)*
G04 Created by KiCad (PCBNEW 4.0.2+dfsg1-stable) date Thu 15 Mar 2018 01:12:06 PM CET*
%MOMM*%
G01*
G04 APERTURE LIST*
%ADD10C,0.100000*%
%ADD11R,2.500000X1.100000*%
%ADD12O,2.500000X1.100000*%
%ADD13C,3.649980*%
%ADD14R,2.000000X2.000000*%
%ADD15C,2.000000*%
%ADD16R,2.032000X1.727200*%
%ADD17O,2.032000X1.727200*%
%ADD18O,1.600000X1.600000*%
%ADD19O,2.000000X2.500000*%
%ADD20R,2.540000X2.540000*%
%ADD21C,2.540000*%
%ADD22C,1.998980*%
%ADD23R,1.300000X1.300000*%
%ADD24C,1.300000*%
%ADD25C,1.699260*%
%ADD26R,1.699260X1.699260*%
%ADD27C,0.800000*%
G04 APERTURE END LIST*
D10*
D11*
X151065000Y-67310000D03*
D12*
X151065000Y-69310000D03*
X151065000Y-71310000D03*
X151065000Y-73310000D03*
X151065000Y-75310000D03*
X151065000Y-77310000D03*
X151065000Y-79310000D03*
X151065000Y-81310000D03*
X166465000Y-81310000D03*
X166365000Y-79310000D03*
X166465000Y-77310000D03*
X166465000Y-75310000D03*
X166465000Y-73310000D03*
X166465000Y-71310000D03*
X166465000Y-69310000D03*
X166465000Y-67310000D03*
D13*
X159862520Y-134620000D03*
X147993100Y-134620000D03*
D14*
X149479000Y-128270000D03*
D15*
X150749000Y-125730000D03*
X152019000Y-128270000D03*
X153289000Y-125730000D03*
X154559000Y-128270000D03*
X155829000Y-125730000D03*
X157099000Y-128270000D03*
X158369000Y-125730000D03*
D16*
X172720000Y-78740000D03*
D17*
X172720000Y-81280000D03*
X172720000Y-83820000D03*
X172720000Y-86360000D03*
X172720000Y-88900000D03*
X172720000Y-91440000D03*
D18*
X158369000Y-111760000D03*
X158369000Y-109220000D03*
X158369000Y-106680000D03*
X158369000Y-104140000D03*
X150749000Y-104140000D03*
X150749000Y-106680000D03*
X150749000Y-109220000D03*
X150749000Y-111760000D03*
D19*
X165005000Y-85265000D03*
X169005000Y-85265000D03*
X165005000Y-91265000D03*
X169005000Y-91265000D03*
D20*
X173500000Y-138515000D03*
D21*
X168420000Y-138515000D03*
D19*
X147860000Y-85265000D03*
X151860000Y-85265000D03*
X147860000Y-91265000D03*
X151860000Y-91265000D03*
D22*
X155829000Y-122555000D03*
X148209000Y-122555000D03*
X158750000Y-99695000D03*
X151130000Y-99695000D03*
X150749000Y-119380000D03*
X158369000Y-119380000D03*
X169545000Y-81280000D03*
X169545000Y-73660000D03*
X172720000Y-75565000D03*
X172720000Y-67945000D03*
D23*
X170815000Y-123190000D03*
D24*
X172815000Y-123190000D03*
D23*
X170815000Y-116840000D03*
D24*
X172815000Y-116840000D03*
D23*
X150749000Y-116205000D03*
D24*
X148249000Y-116205000D03*
D22*
X166370000Y-95250000D03*
X158750000Y-95250000D03*
D14*
X169545000Y-105410000D03*
D15*
X167005000Y-105410000D03*
D14*
X169545000Y-100965000D03*
D15*
X167005000Y-100965000D03*
D14*
X169545000Y-109855000D03*
D15*
X167005000Y-109855000D03*
D22*
X168275000Y-113665000D03*
X160655000Y-113665000D03*
X172720000Y-94615000D03*
X172720000Y-102235000D03*
X172720000Y-112395000D03*
X172720000Y-104775000D03*
D25*
X164467540Y-138430520D03*
D26*
X164467540Y-128270520D03*
D27*
X167275000Y-123190000D02*
X167100000Y-123015000D01*
X158369000Y-104140000D02*
X160655000Y-104140000D01*
X165735000Y-113665000D02*
X168275000Y-113665000D01*
X164465000Y-112395000D02*
X165735000Y-113665000D01*
X164465000Y-107950000D02*
X164465000Y-112395000D01*
X160655000Y-104140000D02*
X164465000Y-107950000D01*
X170815000Y-116840000D02*
X153035000Y-116840000D01*
X153035000Y-116840000D02*
X152400000Y-116205000D01*
X152400000Y-116205000D02*
X150749000Y-116205000D01*
X151765000Y-81310000D02*
X157510000Y-81310000D01*
X158750000Y-82550000D02*
X158750000Y-95250000D01*
X157510000Y-81310000D02*
X158750000Y-82550000D01*
X167005000Y-109855000D02*
X167005000Y-107950000D01*
X167005000Y-107950000D02*
X158750000Y-99695000D01*
X165765000Y-77310000D02*
X164940000Y-77310000D01*
X156940000Y-69310000D02*
X151765000Y-69310000D01*
X164940000Y-77310000D02*
X156940000Y-69310000D01*
X163830000Y-66040000D02*
X158750000Y-66040000D01*
X168275000Y-66040000D02*
X163830000Y-66040000D01*
X169545000Y-76835000D02*
X169545000Y-76200000D01*
X170815000Y-78740000D02*
X169545000Y-77470000D01*
X169545000Y-77470000D02*
X169545000Y-76835000D01*
X172720000Y-78740000D02*
X170815000Y-78740000D01*
X172720000Y-73025000D02*
X172720000Y-70485000D01*
X169545000Y-76200000D02*
X172720000Y-73025000D01*
X172720000Y-70485000D02*
X168275000Y-66040000D01*
X157480000Y-67310000D02*
X151765000Y-67310000D01*
X158750000Y-66040000D02*
X157480000Y-67310000D01*
X150749000Y-104140000D02*
X150749000Y-103886000D01*
X150749000Y-103886000D02*
X156845000Y-97790000D01*
X159385000Y-97790000D02*
X167005000Y-105410000D01*
X156845000Y-97790000D02*
X159385000Y-97790000D01*
X151765000Y-73310000D02*
X158400000Y-73310000D01*
X162560000Y-96520000D02*
X167005000Y-100965000D01*
X162560000Y-77470000D02*
X162560000Y-96520000D01*
X158400000Y-73310000D02*
X162560000Y-77470000D01*
X172720000Y-67945000D02*
X172720000Y-68580000D01*
X172625000Y-68040000D02*
X172720000Y-67945000D01*
X164552020Y-138515000D02*
X164467540Y-138430520D01*
X168420000Y-138515000D02*
X168420000Y-138285000D01*
M02*
